<svg xmlns="http://www.w3.org/2000/svg" viewBox="0 0 16 16"><path fill="#ff7200" d="M2.707 7.99c0 3.652 1.83 6.655 4.257 6.58 3.41-.105 4.394-2.96 4.394-6.614 0-3.652-1.967-6.64-4.394-6.612C3.973 1.38 2.707 4.34 2.707 7.99m-2.648 0C.561.185 6.7.014 6.7.014c4.44.032 5.699 4.76 5.699 4.76.062.262 2.636-4.43 2.636-4.43h1.46c-2.972 6.452-2.85 9.09-2.85 9.09-.245 3.464 1.707 4.66 1.707 4.66 1.828 1.16 1.936-2.233 1.936-2.233.402-.158.65-.282.65-.282.967 4.714-1.934 4.39-1.934 4.39-2.27.235-3.238-3.44-3.238-3.44-3.2 4.22-6.892 3.306-6.892 3.306C-.46 15.026.059 7.99.059 7.99"/></svg>